<svg data-v-0dd9719b="" version="1.0" xmlns="http://www.w3.org/2000/svg" xmlns:xlink="http://www.w3.org/1999/xlink"
     width="100%" height="100%" viewBox="0 0 340.000000 250.000000" preserveAspectRatio="xMidYMid meet"
     color-interpolation-filters="sRGB" style="margin: auto;">
    <g data-v-0dd9719b="" fill="#000000" class="bordersvg b-d1"
       transform="translate(47.695709228515625,57.06500244140625)">
        <path fill-opacity="0" stroke="#000000" stroke-width="3"
              d="M 115.87000274658203 37.63500213623047 A 67.93500137329102 67.93500137329102 0 1 1 115.87000274658203 98.23500061035156"></path>
        <g transform="translate(0,37.63500213623047)">
            <g>
                <rect data-gra="graph-name-bg" stroke-width="2" class="i-icon-bg" x="0" y="0" width="231.74000549316406"
                      height="60.599998474121094" fill-opacity="0"></rect> <!----> <!---->
            </g>
            <g transform="translate(10,3)">
                <g data-gra="path-name" fill-rule="" class="tp-name">
                    <g transform="scale(1)">
                        <g>
                            <path d="M8.28-42.06L8.28-42.06Q9.12-42.06 10.05-41.61 10.98-41.16 11.46-40.44L11.46-40.44 26.04-18 23.04-18.12 37.98-40.44Q39.12-42.06 40.92-42.06L40.92-42.06Q42.36-42.06 43.5-41.04 44.64-40.02 44.64-38.4L44.64-38.4 44.64-3.66Q44.64-2.1 43.62-1.05 42.6 0 40.92 0L40.92 0Q39.24 0 38.19-1.05 37.14-2.1 37.14-3.66L37.14-3.66 37.14-31.92 39.48-31.38 27.24-12.72Q26.7-12.06 25.89-11.58 25.08-11.1 24.24-11.16L24.24-11.16Q23.46-11.1 22.65-11.58 21.84-12.06 21.3-12.72L21.3-12.72 9.84-30.84 11.4-34.02 11.4-3.66Q11.4-2.1 10.44-1.05 9.48 0 7.92 0L7.92 0Q6.42 0 5.46-1.05 4.5-2.1 4.5-3.66L4.5-3.66 4.5-38.4Q4.5-39.9 5.61-40.98 6.72-42.06 8.28-42.06ZM76.86-32.1L76.86-32.1Q78.42-32.1 79.44-31.05 80.46-30 80.46-28.44L80.46-28.44 80.46-2.94Q80.46 2.58 78.39 5.85 76.32 9.12 72.84 10.56 69.36 12 65.04 12L65.04 12Q63.12 12 60.96 11.7 58.8 11.4 57.42 10.8L57.42 10.8Q55.62 10.02 54.93 8.85 54.24 7.68 54.66 6.36L54.66 6.36Q55.2 4.62 56.4 3.99 57.6 3.36 58.92 3.84L58.92 3.84Q59.88 4.14 61.44 4.77 63 5.4 65.04 5.4L65.04 5.4Q67.8 5.4 69.63 4.65 71.46 3.9 72.39 2.13 73.32 0.36 73.32-2.7L73.32-2.7 73.32-6.72 74.58-5.28Q73.56-3.3 72.03-2.01 70.5-0.72 68.4-0.06 66.3 0.6 63.6 0.6L63.6 0.6Q60.42 0.6 58.05-0.87 55.68-2.34 54.36-4.95 53.04-7.56 53.04-10.92L53.04-10.92 53.04-28.44Q53.04-30 54.06-31.05 55.08-32.1 56.64-32.1L56.64-32.1Q58.2-32.1 59.22-31.05 60.24-30 60.24-28.44L60.24-28.44 60.24-13.08Q60.24-9.18 61.95-7.59 63.66-6 66.72-6L66.72-6Q68.82-6 70.26-6.81 71.7-7.62 72.48-9.21 73.26-10.8 73.26-13.08L73.26-13.08 73.26-28.44Q73.26-30 74.28-31.05 75.3-32.1 76.86-32.1ZM102.36 0.6L102.36 0.6Q98.16 0.6 94.8-0.45 91.44-1.5 88.38-4.14L88.38-4.14Q87.6-4.8 87.18-5.64 86.76-6.48 86.76-7.32L86.76-7.32Q86.76-8.7 87.75-9.75 88.74-10.8 90.24-10.8L90.24-10.8Q91.38-10.8 92.28-10.08L92.28-10.08Q94.56-8.22 96.81-7.26 99.06-6.3 102.36-6.3L102.36-6.3Q104.58-6.3 106.44-6.99 108.3-7.68 109.44-8.85 110.58-10.02 110.58-11.52L110.58-11.52Q110.58-13.32 109.5-14.58 108.42-15.84 106.2-16.71 103.98-17.58 100.56-18.06L100.56-18.06Q97.32-18.54 94.86-19.53 92.4-20.52 90.75-22.05 89.1-23.58 88.26-25.65 87.42-27.72 87.42-30.3L87.42-30.3Q87.42-34.2 89.43-36.96 91.44-39.72 94.86-41.16 98.28-42.6 102.42-42.6L102.42-42.6Q106.32-42.6 109.65-41.43 112.98-40.26 115.08-38.46L115.08-38.46Q116.82-37.08 116.82-35.28L116.82-35.28Q116.82-33.96 115.8-32.88 114.78-31.8 113.4-31.8L113.4-31.8Q112.5-31.8 111.78-32.34L111.78-32.34Q110.82-33.18 109.2-33.93 107.58-34.68 105.78-35.19 103.98-35.7 102.42-35.7L102.42-35.7Q99.84-35.7 98.07-35.04 96.3-34.38 95.4-33.24 94.5-32.1 94.5-30.6L94.5-30.6Q94.5-28.8 95.55-27.63 96.6-26.46 98.58-25.77 100.56-25.08 103.32-24.54L103.32-24.54Q106.92-23.88 109.65-22.98 112.38-22.08 114.18-20.67 115.98-19.26 116.88-17.13 117.78-15 117.78-11.94L117.78-11.94Q117.78-8.04 115.62-5.22 113.46-2.4 109.95-0.9 106.44 0.6 102.36 0.6ZM140.7-32.7L140.7-32.7Q144.9-32.7 148.23-30.57 151.56-28.44 153.51-24.72 155.46-21 155.46-16.08L155.46-16.08Q155.46-11.16 153.51-7.41 151.56-3.66 148.29-1.53 145.02 0.6 140.94 0.6L140.94 0.6Q138.54 0.6 136.44-0.18 134.34-0.96 132.75-2.16 131.16-3.36 130.29-4.59 129.42-5.82 129.42-6.66L129.42-6.66 131.28-7.44 131.28 8.34Q131.28 9.9 130.26 10.95 129.24 12 127.68 12L127.68 12Q126.12 12 125.1 10.98 124.08 9.96 124.08 8.34L124.08 8.34 124.08-28.44Q124.08-30 125.1-31.05 126.12-32.1 127.68-32.1L127.68-32.1Q129.24-32.1 130.26-31.05 131.28-30 131.28-28.44L131.28-28.44 131.28-25.5 130.26-26.04Q130.26-26.82 131.1-27.93 131.94-29.04 133.38-30.15 134.82-31.26 136.71-31.98 138.6-32.7 140.7-32.7ZM139.8-26.1L139.8-26.1Q137.16-26.1 135.18-24.78 133.2-23.46 132.09-21.21 130.98-18.96 130.98-16.08L130.98-16.08Q130.98-13.26 132.09-10.95 133.2-8.64 135.18-7.32 137.16-6 139.8-6L139.8-6Q142.44-6 144.39-7.32 146.34-8.64 147.45-10.95 148.56-13.26 148.56-16.08L148.56-16.08Q148.56-18.96 147.45-21.21 146.34-23.46 144.39-24.78 142.44-26.1 139.8-26.1ZM192.3-16.02L192.3-16.02Q192.3-11.1 190.11-7.35 187.92-3.6 184.23-1.5 180.54 0.6 175.98 0.6L175.98 0.6Q171.42 0.6 167.73-1.5 164.04-3.6 161.85-7.35 159.66-11.1 159.66-16.02L159.66-16.02Q159.66-20.94 161.85-24.69 164.04-28.44 167.73-30.57 171.42-32.7 175.98-32.7L175.98-32.7Q180.54-32.7 184.23-30.57 187.92-28.44 190.11-24.69 192.3-20.94 192.3-16.02ZM185.1-16.02L185.1-16.02Q185.1-19.08 183.87-21.33 182.64-23.58 180.57-24.84 178.5-26.1 175.98-26.1L175.98-26.1Q173.46-26.1 171.39-24.84 169.32-23.58 168.09-21.33 166.86-19.08 166.86-16.02L166.86-16.02Q166.86-13.02 168.09-10.77 169.32-8.52 171.39-7.26 173.46-6 175.98-6L175.98-6Q178.5-6 180.57-7.26 182.64-8.52 183.87-10.77 185.1-13.02 185.1-16.02ZM198.66-31.5L198.66-31.5 212.88-31.5Q214.32-31.5 215.28-30.54 216.24-29.58 216.24-28.14L216.24-28.14Q216.24-26.76 215.28-25.83 214.32-24.9 212.88-24.9L212.88-24.9 198.66-24.9Q197.22-24.9 196.26-25.86 195.3-26.82 195.3-28.26L195.3-28.26Q195.3-29.64 196.26-30.57 197.22-31.5 198.66-31.5ZM205.08-39L205.08-39Q206.64-39 207.63-37.95 208.62-36.9 208.62-35.34L208.62-35.34 208.62-8.64Q208.62-7.8 208.95-7.26 209.28-6.72 209.85-6.48 210.42-6.24 211.08-6.24L211.08-6.24Q211.8-6.24 212.4-6.51 213-6.78 213.78-6.78L213.78-6.78Q214.62-6.78 215.31-6 216-5.22 216-3.84L216-3.84Q216-2.16 214.17-1.08 212.34 0 210.24 0L210.24 0Q208.98 0 207.45-0.21 205.92-0.42 204.57-1.23 203.22-2.04 202.32-3.72 201.42-5.4 201.42-8.34L201.42-8.34 201.42-35.34Q201.42-36.9 202.47-37.95 203.52-39 205.08-39Z"
                                  transform="translate(-4.5, 42.599998474121094)"></path>
                        </g> <!----> <!----> <!----> <!----> <!----> <!----> <!---->
                    </g>
                </g> <!---->
            </g>
        </g>
    </g>
    <defs v-gra="od"></defs>
</svg>